<?xml version="1.0" standalone="no"?>
<!DOCTYPE svg PUBLIC "-//W3C//DTD SVG 20010904//EN"
 "http://www.w3.org/TR/2001/REC-SVG-20010904/DTD/svg10.dtd">
<svg version="1.0" xmlns="http://www.w3.org/2000/svg"
 width="1024.000000pt" height="1024.000000pt" viewBox="0 0 1024.000000 1024.000000"
 preserveAspectRatio="xMidYMid meet">

<g transform="translate(0.000000,1024.000000) scale(0.100000,-0.100000)"
fill="#000000" stroke="none">
<path d="M2 9618 l3 -622 65 -32 c53 -27 85 -35 170 -44 274 -28 329 -47 447
-155 80 -73 134 -165 154 -265 6 -30 14 -167 18 -305 6 -236 8 -252 30 -294
l23 -45 -28 -23 c-16 -13 -43 -30 -61 -38 -18 -9 -35 -20 -38 -26 -4 -5 -74
55 -156 135 -81 79 -169 162 -195 183 -88 73 -267 310 -400 532 -34 57 -47 56
-18 -1 35 -67 187 -289 267 -388 46 -58 127 -143 178 -190 137 -123 289 -273
288 -285 -1 -15 -118 -109 -168 -135 l-44 -22 -26 21 c-97 78 -162 100 -320
111 -70 5 -141 12 -159 16 l-32 7 2 -2938 3 -2938 40 -12 c227 -67 375 -259
375 -487 0 -236 -136 -429 -352 -499 l-68 -22 0 -428 0 -429 1583 0 1582 1
-60 27 c-95 43 -158 87 -232 165 -79 84 -123 161 -155 272 -20 72 -22 96 -18
245 8 340 6 402 -14 439 l-18 34 27 -5 c20 -4 34 1 54 21 14 14 37 32 50 39
13 8 39 23 58 33 60 34 217 141 245 167 15 14 29 24 31 21 1 -2 9 -26 15 -54
53 -208 262 -577 572 -1010 109 -153 138 -200 191 -307 31 -62 49 -88 62 -88
15 0 16 3 6 23 -45 82 -169 281 -235 373 -206 289 -400 595 -479 759 -50 103
-119 300 -111 320 2 7 33 32 66 55 51 35 66 40 84 32 26 -12 74 -32 101 -43
54 -21 129 -31 212 -30 108 2 175 -14 259 -65 91 -55 160 -128 205 -219 63
-128 82 -215 82 -385 0 -141 -9 -216 -59 -503 -17 -100 -8 -178 26 -214 18
-20 18 -21 -26 -54 -24 -18 -44 -36 -44 -41 0 -16 37 -8 56 13 37 41 52 43 80
9 l26 -30 1606 0 1607 0 -37 25 c-43 29 -90 94 -108 149 -18 56 -8 180 19 238
30 62 88 121 150 152 41 21 64 26 129 26 68 0 87 -4 141 -31 73 -37 142 -116
161 -185 16 -57 8 -179 -14 -222 -22 -43 -83 -110 -121 -134 -29 -17 3 -18
1228 -18 l1257 0 0 549 0 549 -45 27 c-25 14 -64 49 -87 78 -114 144 -137 327
-60 490 35 76 69 117 140 169 l54 40 -6 77 c-3 42 -5 81 -4 86 1 6 3 617 5
1358 l3 1348 -57 -57 c-122 -120 -311 -252 -476 -333 -104 -50 -292 -114 -418
-142 -123 -26 -419 -37 -552 -20 -177 24 -390 87 -541 161 -221 108 -526 355
-636 515 -131 190 -173 268 -233 425 -77 203 -107 369 -107 610 0 249 23 379
101 576 85 212 195 374 376 552 151 148 257 223 441 312 100 49 161 74 374
150 262 95 373 174 454 325 55 102 72 124 122 156 71 45 95 39 215 -50 25 -19
72 -46 104 -60 32 -15 70 -33 85 -41 l28 -15 -36 -50 c-19 -28 -69 -106 -111
-175 -73 -120 -98 -190 -75 -204 7 -4 2 -19 -13 -43 -14 -20 -25 -48 -25 -64
0 -15 -4 -30 -9 -33 -4 -3 -16 -27 -26 -53 -66 -173 -215 -324 -466 -475 -67
-39 -123 -77 -125 -82 -2 -6 -10 -90 -18 -187 -33 -378 -135 -904 -197 -1005
-24 -39 -24 -46 1 -74 14 -17 26 -21 45 -16 38 10 157 -23 151 -41 -16 -41
-17 -95 -2 -145 19 -68 54 -102 103 -102 47 0 95 51 117 126 9 31 23 61 31 68
24 20 90 -4 138 -51 23 -22 48 -38 57 -37 13 3 108 168 96 168 -2 0 -21 -29
-41 -65 -20 -36 -41 -65 -46 -65 -6 0 -2 15 9 33 11 17 49 84 85 147 137 246
235 396 456 697 l53 73 -22 157 c-27 197 -36 379 -21 456 12 69 75 215 124
289 45 68 51 97 32 152 l-15 44 49 79 c27 44 70 121 95 171 l46 92 53 -21 c58
-23 100 -41 165 -70 23 -10 47 -19 52 -19 6 0 10 66 10 170 l0 170 -37 0 c-74
0 -161 31 -553 195 -140 58 -261 112 -269 120 -9 8 -11 23 -7 39 9 37 37 34
141 -14 48 -22 91 -40 96 -40 5 0 38 -13 74 -30 36 -16 68 -30 70 -30 2 0 28
-11 57 -24 120 -54 148 -66 258 -110 63 -25 127 -46 142 -46 28 0 28 0 28 68
l0 68 -62 11 c-39 6 -128 40 -233 88 -93 42 -244 108 -335 147 -91 38 -169 74
-174 79 -6 5 -3 16 8 28 17 19 19 19 99 -9 83 -28 308 -116 382 -150 98 -44
124 -52 180 -55 33 -2 77 -6 98 -10 l37 -7 0 54 0 55 -57 12 c-51 12 -214 73
-540 204 l-102 40 15 30 c11 21 20 27 32 22 9 -4 29 -11 44 -15 15 -5 64 -24
110 -43 190 -81 352 -134 456 -152 l42 -7 0 69 0 70 -122 25 c-68 14 -175 46
-238 71 -63 25 -148 55 -188 68 -55 18 -71 27 -67 38 5 12 2 12 -12 -2 -17
-15 -24 -15 -72 -2 -29 7 -56 17 -60 21 -6 7 60 -1 96 -11 25 -8 -12 11 -49
24 -20 8 -25 15 -21 30 3 12 9 21 14 21 4 0 82 -25 172 -55 90 -30 206 -62
258 -71 52 -9 110 -22 129 -31 19 -8 63 -18 98 -22 l62 -7 0 42 c0 24 -5 46
-11 50 -8 4 -7 9 2 15 12 7 11 11 -1 23 -16 16 -350 166 -415 186 -22 7 -52
19 -67 26 -25 13 -26 17 -16 44 13 40 22 44 56 26 38 -20 428 -156 447 -156 3
0 4 87 3 192 l-3 193 -38 6 c-20 3 -39 8 -42 11 -3 3 15 15 40 28 l45 23 0
464 0 463 -138 0 -139 0 -13 -42 c-85 -286 -398 -485 -706 -450 -175 20 -301
80 -424 202 -78 77 -142 182 -156 256 l-6 34 -4329 0 -4329 0 2 -622z m6889
436 c8 -9 47 -43 89 -74 85 -65 147 -127 137 -136 -3 -4 -48 29 -99 73 -51 44
-115 96 -142 116 -44 33 -46 37 -24 37 14 0 32 -7 39 -16z m160 -71 c8 -9 -5
-2 -28 17 -24 18 -43 35 -43 37 0 7 56 -35 71 -54z m-236 30 c3 -10 19 -27 35
-38 33 -23 163 -130 197 -162 14 -14 30 -20 39 -16 10 4 1 -15 -22 -45 l-38
-52 -55 55 c-30 30 -59 55 -65 55 -6 0 16 -27 49 -60 32 -33 56 -62 52 -66 -3
-4 -18 9 -33 27 -56 70 -217 224 -221 212 -8 -24 -23 -13 -23 17 0 47 22 38
108 -43 42 -41 88 -82 101 -93 13 -10 39 -32 58 -48 18 -16 36 -26 39 -23 11
11 -28 54 -150 167 -79 73 -120 118 -113 122 20 13 35 9 42 -9z m304 -53 c30
-28 51 -54 47 -57 -4 -4 -32 19 -64 50 -70 70 -57 75 17 7z m-2257 -114 c127
-61 176 -214 108 -333 -36 -63 -87 -99 -161 -115 -70 -14 -147 7 -206 56 -162
139 -45 427 167 413 30 -2 72 -11 92 -21z m1940 -71 c60 -52 119 -97 132 -101
46 -11 54 -32 63 -164 10 -149 3 -231 -22 -285 -52 -109 -186 -183 -410 -225
-72 -14 -126 -32 -192 -65 -101 -50 -106 -51 -122 -31 -9 11 -10 20 -1 38 10
21 10 22 -4 4 -14 -17 -16 -17 -50 9 -20 15 -33 32 -29 38 3 5 1 7 -5 3 -6 -3
-33 15 -61 41 l-51 48 30 44 c35 51 50 99 50 159 0 23 5 42 10 42 6 0 10 43
10 108 0 101 2 113 31 170 28 58 110 142 138 142 6 0 11 4 11 8 0 14 96 32
168 32 62 0 71 4 122 40 30 21 60 39 65 39 6 0 58 -42 117 -94z m-585 -82 c-8
-10 -27 -38 -41 -63 -28 -49 -36 -39 -10 13 20 39 44 67 57 67 6 0 3 -8 -6
-17z m1367 -164 c-3 -5 -10 -7 -15 -3 -5 3 -7 10 -3 15 3 5 10 7 15 3 5 -3 7
-10 3 -15z m-4324 -89 c81 -12 197 -48 232 -72 14 -10 30 -18 35 -18 17 0 130
-117 157 -163 92 -157 111 -390 52 -642 -37 -158 -33 -234 19 -338 24 -48 25
-49 9 -110 l-15 -62 -117 -55 c-64 -29 -129 -62 -143 -72 -19 -13 -37 -16 -60
-12 -30 6 -32 5 -16 -7 16 -13 16 -15 -5 -28 -20 -12 -21 -12 -11 0 13 16 4
28 -68 106 -20 21 -25 33 -17 36 8 4 7 6 -4 6 -9 1 -18 6 -20 13 -4 10 -13 10
-43 1 -44 -14 -58 -9 -50 18 7 21 -10 27 -18 7 -3 -8 -6 -6 -6 5 -1 9 -5 17
-10 17 -5 0 -11 9 -14 20 -3 11 -13 20 -24 20 -15 0 -15 2 -3 10 11 7 9 11
-14 20 -23 8 -26 13 -17 24 10 12 8 13 -10 9 -18 -5 -21 -3 -16 12 6 13 3 16
-9 11 -14 -5 -15 -4 -4 9 11 13 9 15 -13 15 -14 0 -29 5 -32 11 -4 6 0 9 10 7
10 -2 20 4 22 12 4 12 3 12 -5 1 -7 -9 -12 -10 -16 -2 -4 6 -12 9 -17 6 -5 -3
-6 1 -3 9 4 10 1 16 -7 16 -11 0 -11 3 1 11 12 9 11 10 -6 6 -12 -2 -21 1 -21
8 0 22 -47 74 -73 81 -23 7 -23 8 -5 15 11 4 14 8 8 8 -7 1 -13 8 -13 16 0 8
-4 15 -8 15 -5 0 -14 11 -20 25 -7 15 -20 25 -32 25 -12 0 -18 5 -15 10 10 17
-5 49 -20 44 -11 -5 -13 2 -10 25 2 22 -1 31 -10 31 -9 0 -12 6 -9 15 5 11 2
13 -9 9 -12 -4 -15 -1 -12 16 3 15 -3 24 -18 30 -12 5 -16 9 -9 9 6 1 12 6 12
12 0 6 -7 9 -15 5 -20 -7 -19 8 1 28 12 12 12 16 2 16 -10 0 -9 3 2 10 13 9
13 10 0 10 -13 0 -13 2 -1 9 8 5 21 7 30 4 14 -4 14 -4 1 6 -8 6 -24 8 -35 5
-18 -4 -18 -3 -4 8 8 7 18 21 22 31 5 13 1 17 -16 18 l-22 2 23 4 c24 5 29 18
10 26 -7 3 -3 6 10 6 12 1 22 6 22 12 0 5 -4 7 -10 4 -5 -3 -10 1 -10 9 0 9
-4 16 -9 16 -4 0 -6 11 -3 25 3 21 7 23 23 14 13 -6 19 -6 19 1 0 5 -5 10 -11
10 -5 0 -7 5 -4 10 4 6 10 8 14 6 4 -3 8 4 8 15 1 10 -3 19 -9 19 -6 0 -8 9
-5 20 3 11 0 20 -6 20 -6 0 -4 6 5 13 9 6 25 39 36 72 11 33 23 69 28 79 5 14
4 17 -4 12 -9 -6 -9 -1 -1 18 7 14 16 23 20 20 4 -2 13 5 19 16 8 14 8 20 0
20 -7 0 -5 6 4 15 8 8 20 15 27 15 8 0 8 4 -1 15 -11 13 -10 14 5 8 15 -5 17
-3 12 11 -6 14 -3 16 13 11 14 -4 20 -2 20 9 0 11 11 15 40 14 47 0 68 11 24
13 -16 1 14 7 66 14 129 16 126 16 200 5z m6910 -88 c0 -19 -57 -33 -124 -31
-53 2 -71 -1 -74 -12 -8 -25 -46 -60 -103 -95 -45 -27 -60 -43 -73 -77 -9 -24
-34 -71 -56 -105 l-40 -61 -57 25 c-72 32 -92 49 -75 66 9 9 25 7 74 -10 33
-12 63 -20 66 -17 10 10 -22 35 -59 47 -28 8 -39 17 -39 31 0 14 5 17 18 12 9
-3 38 -9 63 -12 42 -5 47 -3 72 27 49 58 35 68 -92 61 -41 -2 -52 0 -49 11 5
13 53 27 166 48 61 11 119 36 153 66 9 8 20 14 25 13 5 -1 16 1 24 4 8 4 40 8
70 10 30 2 67 4 83 5 15 1 27 -2 27 -6z m-8217 -130 c64 -29 103 -67 136 -134
56 -111 38 -238 -45 -324 -114 -117 -290 -124 -407 -16 -66 62 -89 114 -89
204 0 172 142 308 305 293 33 -3 78 -13 100 -23z m4109 -249 c40 -36 87 -75
103 -85 17 -10 25 -18 18 -18 -6 0 -31 16 -55 35 -24 19 -66 53 -95 75 -55 42
-71 60 -54 60 6 0 44 -30 83 -67z m-92 -19 c28 -44 20 -53 -19 -24 -34 24 -37
30 -19 48 16 16 13 17 38 -24z m2048 -10 c16 -9 38 -31 51 -50 19 -28 23 -43
19 -84 -3 -28 -1 -53 3 -56 15 -9 10 -35 -10 -52 -10 -10 -27 -39 -37 -67 -21
-61 -53 -97 -105 -120 -38 -17 -41 -17 -80 1 -66 29 -145 111 -159 164 -18 68
1 142 48 186 119 110 111 106 180 100 34 -3 75 -13 90 -22z m1612 -18 c45 -13
57 -29 42 -53 -12 -19 -122 14 -122 37 0 33 13 36 80 16z m-3669 -33 c13 -16
12 -17 -3 -4 -10 7 -18 15 -18 17 0 8 8 3 21 -13z m171 -57 c17 -11 25 -23 21
-32 -4 -12 -15 -7 -45 23 -49 47 -76 92 -32 52 16 -15 41 -34 56 -43z m3660
38 c71 -26 318 -132 328 -141 7 -6 -67 6 -110 19 -19 6 -69 25 -110 44 -42 18
-102 40 -134 48 -68 18 -71 20 -63 41 8 19 3 20 89 -11z m-3672 -101 c0 -1 -4
-3 -8 -3 -13 0 -92 70 -92 81 0 6 23 -9 50 -32 28 -23 50 -44 50 -46z m-132
15 c44 -30 50 -38 33 -38 -33 0 -89 29 -111 58 -43 54 -23 49 78 -20z m3646
33 c4 -5 -3 -7 -14 -4 -23 6 -26 13 -6 13 8 0 17 -4 20 -9z m101 -26 c39 -17
21 -18 -25 0 -19 7 -28 14 -20 14 8 0 29 -6 45 -14z m-3575 -25 c0 -5 -4 -10
-10 -10 -5 0 -10 5 -10 10 0 6 5 10 10 10 6 0 10 -4 10 -10z m-183 -46 c-3 -3
-12 -4 -19 -1 -8 3 -5 6 6 6 11 1 17 -2 13 -5z m3538 -54 c13 -6 15 -9 5 -9
-8 0 -22 4 -30 9 -18 12 -2 12 25 0z m-4351 -41 c-3 -5 -10 -7 -15 -3 -5 3 -7
10 -3 15 3 5 10 7 15 3 5 -3 7 -10 3 -15z m3351 -19 c0 -16 -6 -26 -18 -28
-19 -4 -32 20 -23 44 9 25 41 13 41 -16z m1142 14 c-3 -3 -12 -4 -19 -1 -8 3
-5 6 6 6 11 1 17 -2 13 -5z m-154 -25 c37 -10 44 -22 28 -47 -6 -11 -16 -10
-49 4 -23 9 -42 18 -42 19 0 10 13 35 19 35 3 0 23 -5 44 -11z m-138 -93 l30
-24 -34 7 c-21 4 -35 13 -37 24 -3 23 5 21 41 -7z m38 -58 c52 -13 55 -16 30
-47 -18 -21 -19 -21 -64 -4 -48 19 -49 20 -49 54 0 16 4 20 18 14 9 -3 38 -11
65 -17z m-103 -128 c10 -5 32 -11 49 -12 24 -2 30 -6 25 -18 -3 -8 -9 -23 -11
-33 -6 -19 -17 -17 -79 8 -37 15 -46 27 -38 49 7 18 27 20 54 6z m-56 -126
c26 -9 45 -18 43 -20 -5 -5 -81 17 -91 27 -14 12 -7 11 48 -7z m-5330 -186
c-15 -28 -39 -50 -69 -64 -37 -17 -215 -74 -232 -74 -26 0 -12 20 15 21 l27 1
-25 8 c-24 8 -24 8 -2 9 12 1 25 1 28 0 4 0 10 3 13 8 9 12 74 33 105 33 15 0
25 4 22 9 -3 5 6 11 19 14 14 2 28 0 31 -5 3 -4 10 -5 16 -2 6 4 5 10 -3 15
-11 7 -10 9 4 9 10 0 25 7 33 15 19 18 28 20 18 3z m1067 -68 c48 -13 118 -75
140 -124 11 -24 19 -64 19 -96 0 -128 -92 -220 -220 -220 -128 0 -220 92 -220
220 0 150 140 259 281 220z m-1021 -90 c-6 -11 -47 -50 -93 -88 -154 -128
-193 -153 -264 -172 -115 -29 -133 -31 -133 -15 0 8 7 15 15 15 8 0 23 4 33 9
9 5 31 15 47 22 54 24 229 145 287 198 32 29 67 69 80 89 l22 36 8 -38 c5 -22
4 -45 -2 -56z m-670 69 c0 -5 5 -7 12 -3 8 5 9 2 5 -9 -4 -12 -1 -17 11 -18
11 0 13 -2 4 -6 -8 -3 -22 4 -33 15 -21 24 -24 32 -9 32 6 0 10 -5 10 -11z
m3163 -55 c111 -58 153 -221 81 -311 -55 -67 -77 -78 -162 -78 -69 0 -81 3
-119 30 -106 75 -122 223 -35 317 63 67 154 83 235 42z m-3108 -3 c-3 -6 3
-14 12 -20 10 -6 13 -11 7 -11 -6 0 -19 9 -29 20 -17 19 -17 20 -1 20 9 0 15
-4 11 -9z m672 -85 c15 -46 18 -44 -107 -111 -47 -25 -119 -75 -160 -111 -41
-36 -80 -62 -88 -59 -7 2 -11 1 -8 -4 8 -12 -20 -22 -41 -14 -10 4 -14 2 -9
-5 12 -21 -33 -24 -59 -4 l-24 19 42 13 c59 17 118 46 148 72 15 13 41 34 59
48 18 14 41 32 50 40 10 8 38 31 61 50 55 44 99 90 99 102 0 23 25 -2 37 -36z
m5543 37 c0 -23 -199 -361 -217 -367 -24 -9 -14 25 29 103 90 163 188 301 188
264z m-8646 -32 c17 -18 15 -21 -56 -76 -40 -32 -92 -78 -114 -104 l-42 -46
-68 0 c-71 0 -100 18 -47 31 37 9 109 57 213 142 47 39 88 71 91 71 3 1 14 -8
23 -18z m8863 -62 l121 -60 -43 -79 c-79 -143 -125 -239 -125 -264 0 -19 -7
-26 -29 -31 -24 -5 -41 2 -93 37 -34 24 -96 54 -136 67 -92 29 -95 13 51 268
93 164 62 156 254 62z m-1977 51 c0 -5 -2 -10 -4 -10 -3 0 -8 5 -11 10 -3 6
-1 10 4 10 6 0 11 -4 11 -10z m-4317 -27 c-7 -2 -19 -2 -25 0 -7 3 -2 5 12 5
14 0 19 -2 13 -5z m-66 -19 c-3 -3 -12 -4 -19 -1 -8 3 -5 6 6 6 11 1 17 -2 13
-5z m-2447 -27 c0 -15 -31 -54 -98 -121 -53 -53 -104 -101 -113 -106 -8 -5
-38 -12 -67 -16 -47 -6 -52 -5 -52 13 0 14 11 23 38 31 36 11 194 135 251 196
30 32 41 33 41 3z m3115 -20 c13 -10 16 -21 11 -40 -5 -22 -25 -36 -104 -74
-101 -48 -108 -54 -138 -112 -24 -48 -54 -81 -72 -81 -9 0 -12 -3 -8 -7 8 -8
-163 -45 -175 -37 -22 13 -7 41 29 53 54 20 142 82 209 149 54 53 143 122 158
122 3 0 15 9 27 20 26 24 38 25 63 7z m-1781 -71 c72 -42 116 -118 116 -201 0
-97 -47 -171 -135 -211 -95 -45 -212 -20 -282 59 -42 47 -56 96 -51 173 3 50
10 72 34 106 30 43 93 93 129 102 47 11 148 -4 189 -28z m7611 -3 c-23 -55
-137 -264 -142 -259 -3 3 95 203 137 279 18 31 21 18 5 -20z m-8906 0 c-6 -15
-16 -34 -22 -42 -10 -12 -9 -13 3 -6 8 4 -3 -11 -25 -35 -49 -52 -150 -120
-179 -120 -16 0 1 22 74 93 86 83 147 137 156 137 2 0 -1 -12 -7 -27z m3139
-75 c7 -34 -37 -74 -155 -141 -117 -66 -237 -120 -246 -110 -3 2 -15 0 -26 -7
-13 -6 -21 -7 -21 -1 0 6 26 18 58 27 55 17 113 50 65 38 -12 -3 -24 -1 -27 5
-5 7 3 11 21 11 22 0 25 2 13 10 -11 7 -5 10 25 11 32 0 36 2 20 9 -18 8 -17
9 8 9 16 1 26 5 22 11 -3 6 5 10 18 10 16 0 26 7 30 20 4 14 14 20 34 20 22 0
25 2 13 10 -12 8 -10 10 8 10 13 0 20 4 17 10 -3 6 4 10 15 10 14 0 24 8 27
21 4 12 9 16 12 10 5 -8 13 -6 27 5 10 8 14 13 7 10 -6 -4 -15 -1 -18 5 -5 7
3 9 21 7 18 -2 30 -10 32 -20z m-3188 -41 c0 -2 -10 -12 -22 -23 l-23 -19 19
23 c18 21 26 27 26 19z m40 -46 c-11 -21 -30 -37 -30 -25 0 8 30 44 37 44 2 0
-1 -9 -7 -19z m3059 -74 c-41 -33 -241 -129 -309 -148 -103 -30 -125 -21 -25
10 88 27 149 52 210 88 80 47 135 86 136 97 1 6 4 2 6 -9 3 -12 -3 -26 -18
-38z m5343 -14 c22 -20 23 -31 1 -55 -37 -41 -109 -6 -83 41 17 33 54 40 82
14z m211 -82 c21 -24 30 -81 13 -81 -18 0 -148 49 -163 62 -14 11 -4 37 25 70
14 17 18 16 63 -9 27 -14 55 -33 62 -42z m-5535 -10 c-1 -16 4 -36 11 -45 11
-13 11 -17 -3 -22 -21 -8 -35 4 -17 15 10 7 10 10 1 13 -9 3 -10 14 -5 36 8
40 18 42 13 3z m-388 5 c0 -9 -40 -13 -46 -5 -3 5 6 9 20 9 14 0 26 -2 26 -4z
m5638 -11 l30 -16 -34 -102 c-20 -56 -43 -133 -53 -171 -16 -65 -20 -70 -52
-81 l-34 -12 32 -16 31 -17 -28 -52 c-32 -59 -385 -880 -487 -1133 -36 -88
-67 -166 -70 -173 -4 -9 -16 -12 -37 -8 -17 3 -60 1 -96 -4 -35 -5 -66 -7 -69
-4 -2 2 7 39 22 82 93 274 182 718 203 1005 l7 98 106 71 c275 184 353 264
457 470 21 43 39 78 40 78 0 0 15 -7 32 -15z m-8243 -29 c29 -13 69 -44 93
-71 163 -186 19 -481 -227 -463 -96 7 -195 69 -238 151 -9 18 -18 65 -21 108
-4 66 -1 84 20 130 14 30 41 71 62 91 76 76 214 100 311 54z m8355 9 c10 -12
9 -24 -5 -62 -10 -26 -21 -79 -25 -119 -6 -61 -13 -81 -46 -130 -21 -32 -45
-60 -53 -62 -33 -11 9 182 78 361 12 30 32 35 51 12z m301 5 c10 -6 19 -21 19
-34 0 -52 -65 -62 -88 -13 -22 46 18 74 69 47z m-269 -62 c-8 -8 -9 -4 -5 13
4 13 8 18 11 10 2 -7 -1 -18 -6 -23z m51 -5 c-6 -15 -4 -16 8 -6 11 9 20 9 39
0 32 -16 36 -48 10 -72 -26 -23 -53 -11 -59 26 -3 22 -4 22 -11 4 -7 -19 -7
-19 -19 3 -15 29 -5 62 19 62 14 0 18 -5 13 -17z m197 -64 c0 -5 -20 -49 -44
-97 -75 -151 -80 -173 -73 -357 4 -88 16 -221 27 -295 11 -74 22 -142 23 -150
1 -9 -8 -29 -21 -45 -37 -49 -190 -264 -244 -345 -28 -41 -55 -79 -61 -85 -27
-27 162 268 241 375 l55 74 -19 131 c-12 83 -19 185 -19 283 l0 152 -42 -6
c-35 -5 -43 -3 -52 14 -13 25 -5 54 53 172 26 52 45 103 43 112 -3 9 4 25 14
34 10 9 19 21 19 25 0 4 4 19 9 32 l10 25 40 -20 c23 -11 41 -24 41 -29z
m-244 6 c16 -25 16 -27 -11 -55 -30 -31 -45 -31 -45 2 0 17 29 78 37 78 1 0
10 -11 19 -25z m92 -71 c2 -1 -28 -52 -65 -114 l-68 -111 -35 6 c-19 4 -39 10
-44 15 -10 10 57 114 118 180 40 45 54 49 94 24z m-318 -448 c-86 -250 -254
-668 -265 -658 -5 4 -5 1 0 -7 4 -7 3 -16 -2 -20 -6 -3 -54 -109 -108 -236
-54 -126 -101 -233 -104 -237 -9 -11 -82 24 -77 37 2 5 34 82 69 170 36 88
115 277 177 420 61 143 139 325 172 405 32 80 81 191 108 248 48 100 49 102
74 91 l25 -12 -69 -201z m161 168 c38 -16 41 -19 35 -48 -4 -17 -40 -101 -80
-186 -89 -184 -175 -389 -320 -755 -127 -319 -175 -425 -192 -425 -7 0 -22 13
-34 30 l-21 29 36 95 c19 52 82 199 139 328 136 308 215 504 292 726 69 196
79 222 94 222 5 0 28 -7 51 -16z m152 -226 c4 -90 14 -194 22 -233 8 -38 15
-79 15 -89 0 -11 -26 -58 -59 -105 -97 -144 -469 -767 -491 -825 -11 -31 -21
-32 -45 -6 -9 10 -37 27 -61 36 -24 9 -44 21 -44 26 0 5 9 27 20 49 12 22 47
108 80 192 151 391 331 820 402 959 61 120 81 146 116 151 15 2 30 5 33 6 3 0
9 -72 12 -161z m-3357 87 c15 -23 15 -27 -3 -57 -31 -54 -83 -46 -98 13 -4 17
1 31 15 47 28 30 65 28 86 -3z m2461 -107 c-9 -141 -62 -471 -97 -593 -4 -16
-16 -66 -26 -110 -9 -44 -21 -84 -25 -89 -4 -5 4 42 17 104 38 175 82 452 101
635 19 190 40 226 30 53z m-4554 21 c31 -7 57 -15 57 -20 0 -4 14 -10 31 -14
17 -4 28 -9 26 -12 -3 -2 2 -13 11 -23 18 -22 25 -50 11 -50 -4 0 -6 -6 -3
-14 3 -8 -11 -21 -40 -35 -25 -11 -48 -21 -51 -21 -2 0 -44 -19 -91 -41 -186
-88 -411 -311 -543 -535 -101 -173 -177 -434 -182 -629 -1 -61 -5 -73 -27 -93
-14 -12 -32 -20 -39 -17 -8 2 -24 -2 -37 -10 -13 -9 -32 -13 -42 -9 -16 5 -16
4 -4 -5 12 -8 5 -11 -28 -11 -26 0 -41 4 -37 10 3 6 -3 10 -14 10 -19 0 -26
10 -22 32 0 4 -8 9 -18 13 -10 3 -25 20 -32 38 -7 18 -18 35 -25 40 -7 4 -15
21 -19 37 -4 17 -11 28 -16 24 -8 -5 -14 32 -10 65 2 7 -2 10 -8 6 -7 -4 -11
12 -12 47 0 29 -3 62 -5 73 -6 25 -6 20 1 140 8 139 7 133 25 127 12 -5 13 -3
2 10 -10 13 -10 17 3 22 8 3 15 15 15 26 0 27 36 107 50 112 6 2 12 10 13 18
2 8 6 21 11 28 4 7 5 16 2 19 -3 3 0 13 7 22 11 14 10 14 -5 3 -10 -8 -17 -17
-16 -20 4 -38 -18 -43 -25 -6 -2 14 2 31 10 40 8 8 11 14 6 14 -4 0 0 5 10 11
9 5 17 18 17 27 0 22 112 131 117 114 3 -6 9 -10 13 -7 5 3 6 13 3 21 -5 13
-1 15 15 10 11 -4 23 -2 27 4 3 5 16 10 29 10 28 0 61 34 50 51 -5 9 -2 10 9
6 11 -4 14 -2 10 9 -3 10 2 14 18 15 23 0 23 1 4 9 -18 8 -18 9 -2 9 10 1 15
6 12 11 -4 6 5 10 19 10 14 0 26 4 26 10 0 5 7 7 15 4 8 -4 15 -2 15 4 0 6 -6
13 -12 15 -7 3 3 6 22 7 29 1 32 3 15 10 -17 7 -14 9 15 10 29 1 32 3 15 10
-15 6 -7 9 30 9 37 1 46 4 35 11 -11 7 -2 9 30 4 42 -5 44 -4 26 10 -19 15
-17 16 35 18 43 1 46 2 17 5 -21 2 -38 9 -38 14 0 6 -5 7 -10 4 -11 -7 -123
15 -116 23 3 2 28 -1 56 -7 34 -7 57 -8 68 -1 14 8 13 10 -8 10 -14 1 -34 6
-45 11 -16 7 -13 8 12 4 18 -2 41 -1 50 2 15 6 12 9 -12 15 l-30 7 35 -1 c58
0 67 2 45 12 -19 8 -19 9 2 9 12 1 24 5 27 9 8 13 216 48 302 51 22 0 66 -4
97 -10z m1627 -4 c0 -8 -7 -15 -15 -15 -16 0 -20 12 -8 23 11 12 23 8 23 -8z
m-1533 -11 c-3 -3 -12 -4 -19 -1 -8 3 -5 6 6 6 11 1 17 -2 13 -5z m-760 -140
c-3 -3 -12 -4 -19 -1 -8 3 -5 6 6 6 11 1 17 -2 13 -5z m-139 -216 c-3 -7 -12
-14 -22 -14 -13 -2 -13 -1 -1 3 8 2 13 9 10 14 -4 5 -1 9 5 9 7 0 10 -6 8 -12z
m1437 -115 c29 -118 22 -374 -16 -535 -19 -81 -22 -87 -40 -78 -10 6 -19 20
-19 31 0 11 5 17 10 14 6 -3 10 1 10 9 0 10 -6 13 -17 9 -13 -5 -15 -2 -10 11
4 10 7 23 7 29 0 7 8 -3 17 -21 8 -18 18 -31 20 -28 3 2 0 14 -7 25 -7 14 -8
27 -1 38 6 11 6 24 0 36 -6 10 -8 23 -5 30 2 7 5 4 5 -5 1 -10 5 -18 11 -18 5
0 7 6 4 13 -3 8 -1 32 4 55 6 24 6 42 1 44 -6 2 -5 46 2 108 6 57 9 139 7 182
-5 78 4 103 17 51z m-1735 -208 c-6 -15 -13 -25 -17 -22 -3 3 -2 14 2 24 8 17
9 21 15 41 1 4 4 2 6 -4 3 -6 0 -24 -6 -39z m1222 -87 c22 -6 61 -31 88 -55
94 -84 119 -211 65 -331 -40 -88 -63 -105 -175 -127 -89 -16 -100 -16 -151 -2
-65 19 -131 73 -161 131 -30 56 -31 172 -2 236 26 56 80 111 136 138 50 24
139 29 200 10z m1322 -9 c-3 -5 -10 -7 -15 -3 -5 3 -7 10 -3 15 3 5 10 7 15 3
5 -3 7 -10 3 -15z m-847 -91 c-3 -7 -5 -2 -5 12 0 14 2 19 5 13 2 -7 2 -19 0
-25z m-20 -90 c-3 -8 -6 -5 -6 6 -1 11 2 17 5 13 3 -3 4 -12 1 -19z m-4026
-99 c43 -21 96 -80 116 -127 33 -79 11 -186 -50 -250 -130 -135 -360 -78 -408
102 -54 198 157 368 342 275z m3995 -4 c-5 -18 -3 -24 6 -23 8 2 13 -6 12 -19
0 -19 2 -21 15 -10 12 10 14 9 8 -6 -4 -10 -7 -23 -7 -28 0 -4 -7 -6 -15 -3
-8 4 -15 1 -15 -5 0 -6 5 -11 10 -11 6 0 10 -5 10 -11 0 -7 -9 -9 -22 -6 -21
6 -22 5 -5 -8 17 -12 17 -15 3 -44 -11 -21 -22 -29 -36 -26 -11 2 -22 0 -25
-6 -4 -5 -11 -9 -16 -9 -6 0 -8 4 -4 9 3 5 1 12 -4 16 -6 3 5 35 23 73 18 37
39 84 47 105 15 42 24 50 15 12z m3972 -21 c20 -6 22 -11 17 -33 -4 -14 -8
-27 -10 -29 -2 -2 -38 4 -80 13 -42 10 -74 19 -71 22 9 9 81 32 101 32 11 1
30 -2 43 -5z m103 -44 l24 -20 -37 2 c-29 2 -38 6 -38 20 0 24 22 23 51 -2z
m-2501 -97 c81 -33 129 -110 130 -206 0 -69 -23 -120 -76 -167 -51 -44 -93
-60 -159 -60 -64 0 -106 15 -153 55 -113 95 -98 275 29 359 70 47 147 53 229
19z m2559 8 c13 -13 17 -27 14 -46 -5 -23 -9 -26 -32 -19 -31 9 -61 9 -97 0
-25 -7 -26 -5 -19 21 3 15 14 36 22 46 22 24 87 23 112 -2z m-4189 -64 c35 6
35 6 14 -35 -10 -21 -23 -32 -37 -33 -21 0 -21 -1 -2 -9 l20 -9 -20 -1 c-11
-1 -14 -4 -7 -7 19 -7 4 -23 -16 -16 -14 6 -15 4 -4 -9 10 -13 9 -20 -8 -39
-10 -13 -19 -19 -20 -12 0 6 6 13 13 16 10 4 10 7 0 18 -10 9 -13 10 -13 1 0
-7 -7 -12 -16 -12 -14 0 -14 -1 0 -16 18 -18 19 -24 6 -44 -8 -13 -10 -12 -10
3 0 11 -8 17 -22 16 -20 0 -21 -1 -5 -8 17 -6 17 -8 3 -20 -8 -7 -20 -10 -26
-6 -5 3 -10 1 -10 -4 0 -6 7 -11 15 -11 22 0 18 -24 -9 -49 -18 -17 -25 -19
-30 -9 -4 9 -8 10 -12 1 -3 -6 -16 -9 -30 -7 -13 2 -24 0 -24 -6 0 -6 4 -9 8
-6 4 2 14 1 22 -5 12 -7 12 -9 -3 -9 -10 0 -15 -4 -12 -10 3 -5 -2 -10 -12
-10 -17 -1 -16 -2 2 -16 19 -15 19 -15 -9 -8 -21 5 -27 4 -22 -5 4 -6 2 -11
-3 -11 -6 0 -22 -10 -36 -22 -25 -21 -25 -23 -8 -36 16 -13 15 -14 -11 -8 -25
6 -28 5 -17 -8 10 -12 9 -14 -8 -9 -23 6 -29 -11 -8 -21 6 -3 0 -4 -15 -1 -28
5 -39 -8 -15 -19 6 -3 2 -3 -10 0 -24 6 -32 -10 -10 -20 6 -4 2 -4 -10 -2 -16
3 -23 -1 -23 -11 0 -11 -6 -14 -21 -10 -17 5 -18 3 -7 -10 11 -14 10 -15 -11
-8 -20 6 -23 5 -17 -10 5 -14 2 -17 -19 -13 -14 3 -28 1 -31 -3 -3 -5 1 -9 8
-9 10 0 10 -2 -1 -9 -8 -5 -21 -7 -29 -3 -11 4 -13 1 -7 -8 6 -10 2 -11 -19
-6 -21 5 -27 3 -24 -6 5 -14 -34 -38 -61 -38 -10 0 -21 -3 -25 -7 -15 -16
-125 -32 -246 -37 -75 -3 -113 -2 -95 3 29 8 28 9 -13 10 -27 1 -41 -3 -37 -9
10 -16 -189 -12 -291 5 -100 17 -190 43 -159 45 16 1 15 4 -9 14 -20 9 -25 15
-15 19 10 4 8 6 -5 6 -14 1 -16 4 -7 14 6 8 9 16 7 18 -3 3 -7 16 -10 29 -3
14 -8 37 -11 53 -3 16 -1 27 5 27 6 0 8 -4 5 -10 -3 -5 -1 -10 5 -10 6 0 10 8
8 18 -2 10 -12 16 -23 15 -11 -1 -14 0 -7 3 6 3 9 11 5 17 -3 7 16 -8 43 -33
106 -95 139 -121 161 -126 13 -4 20 -10 17 -15 -3 -5 9 -9 26 -9 18 0 29 -4
25 -10 -4 -6 14 -10 47 -11 39 0 48 -3 33 -9 l-20 -9 20 -2 c42 -4 71 -3 113
4 24 4 41 4 38 -1 -3 -5 1 -9 9 -9 8 0 15 6 15 14 0 9 14 13 44 13 25 0 56 4
70 9 13 6 47 11 74 13 28 2 48 6 46 9 -4 8 93 22 159 23 42 1 45 3 30 15 -16
12 -13 13 25 8 39 -5 57 5 30 16 -7 3 3 6 22 6 26 1 31 4 20 11 -12 8 -10 10
8 10 13 0 20 4 17 10 -4 6 6 10 22 10 22 0 25 2 13 10 -12 8 -10 10 8 10 13 0
20 4 17 10 -3 6 4 10 17 10 18 0 20 2 8 10 -13 8 -12 10 3 10 9 0 17 5 17 11
0 6 7 8 16 5 8 -3 12 -2 9 4 -10 17 24 43 48 37 19 -5 20 -4 6 6 -13 10 -14
15 -4 24 7 7 16 9 19 6 3 -4 6 -1 6 6 0 20 23 38 45 33 16 -3 21 2 21 17 0 12
-4 21 -9 21 -5 0 -4 7 3 15 7 8 19 15 27 15 8 0 12 4 9 8 -3 5 5 19 17 33 12
13 38 44 57 69 19 25 39 50 45 57 5 6 24 34 40 61 22 37 32 47 38 37 5 -10 17
-12 37 -8z m650 -7 c0 -5 -4 -10 -10 -10 -5 0 -10 5 -10 10 0 6 5 10 10 10 6
0 10 -4 10 -10z m3512 -27 c24 -21 23 -42 -4 -70 -27 -29 -73 -31 -88 -4 -17
33 -11 50 23 71 39 24 45 25 69 3z m-5697 -163 c3 -5 1 -10 -4 -10 -6 0 -11 5
-11 10 0 6 2 10 4 10 3 0 8 -4 11 -10z m-1343 -47 c112 -81 132 -249 40 -341
-47 -47 -101 -73 -161 -78 -25 -2 -60 -7 -77 -10 -32 -6 -70 18 -58 37 3 6
-12 26 -34 45 -106 91 -93 268 27 347 49 33 63 36 148 34 62 -2 77 -6 115 -34z
m1530 5 c-7 -7 -12 -8 -12 -2 0 6 3 14 7 17 3 4 9 5 12 2 2 -3 -1 -11 -7 -17z
m-35 -25 c-20 -2 -52 -2 -70 0 -17 2 0 4 38 4 39 0 53 -2 32 -4z m3 -17 c0 -2
-7 -6 -15 -10 -8 -3 -15 -1 -15 4 0 6 7 10 15 10 8 0 15 -2 15 -4z m4020 -56
c0 -24 -25 -33 -41 -13 -11 13 -10 17 5 29 22 16 36 10 36 -16z m-4053 14 c-3
-3 -12 -4 -19 -1 -8 3 -5 6 6 6 11 1 17 -2 13 -5z m36 -21 c-7 -2 -21 -2 -30
0 -10 3 -4 5 12 5 17 0 24 -2 18 -5z m1082 -91 c-3 -3 -11 0 -18 7 -9 10 -8
11 6 5 10 -3 15 -9 12 -12z m620 -607 c51 -38 68 -78 73 -172 l4 -81 -42 -31
c-56 -40 -134 -58 -186 -41 -86 27 -143 117 -129 201 8 46 54 112 98 140 46
29 134 21 182 -16z m-3630 -90 c192 -58 331 -211 385 -421 36 -138 21 -300
-37 -406 -38 -69 -130 -151 -216 -192 -40 -19 -130 -53 -202 -76 -142 -46
-201 -73 -285 -130 l-55 -37 -33 22 c-18 12 -35 25 -38 28 -12 12 109 147 178
200 41 30 79 61 85 69 13 15 112 247 139 326 16 44 23 52 44 52 l25 1 -25 13
c-21 12 -26 23 -31 78 -3 40 -1 77 8 102 15 44 17 69 4 64 -4 -1 -28 -27 -52
-57 -33 -40 -57 -58 -95 -73 -69 -25 -171 -119 -212 -195 -17 -32 -45 -97 -62
-143 -31 -86 -43 -105 -136 -237 l-51 -72 -51 34 c-63 43 -68 52 -47 75 31 34
46 114 56 298 14 264 47 373 149 495 96 114 213 182 345 201 48 6 157 -4 210
-19z m4635 -35 c0 -5 -4 -10 -10 -10 -5 0 -10 5 -10 10 0 6 5 10 10 10 6 0 10
-4 10 -10z m-410 -75 c0 -8 -7 -15 -15 -15 -8 0 -15 7 -15 15 0 8 7 15 15 15
8 0 15 -7 15 -15z m-4318 -347 c-12 -12 -42 1 -42 20 0 9 10 27 23 40 l22 24
3 -37 c2 -21 -1 -42 -6 -47z m6618 72 c0 -5 -4 -10 -10 -10 -5 0 -10 5 -10 10
0 6 5 10 10 10 6 0 10 -4 10 -10z m-6699 -95 c-3 -11 -42 -74 -86 -140 -44
-66 -93 -149 -110 -183 -27 -58 -31 -63 -55 -57 -43 11 -45 21 -21 97 32 99
53 139 103 191 90 93 185 145 169 92z m89 -4 c-1 -23 -17 -30 -38 -15 -31 21
-27 31 8 26 17 -2 30 -7 30 -11z m-29 -42 c16 -11 29 -27 29 -35 0 -19 -80
-225 -121 -314 -27 -57 -40 -72 -110 -123 -52 -38 -96 -81 -126 -123 -26 -35
-50 -64 -55 -64 -11 0 -78 43 -78 51 0 10 79 129 86 129 3 0 24 -10 46 -22 33
-19 40 -20 48 -8 13 21 12 70 -1 70 -6 0 -18 7 -26 16 -15 15 -15 18 0 42 11
19 23 26 39 24 13 -1 24 -6 26 -11 2 -5 11 -7 20 -4 11 3 23 -7 36 -27 10 -17
20 -29 23 -26 7 7 -29 66 -40 66 -18 0 2 40 82 163 44 69 81 129 81 134 0 12
-137 -194 -166 -249 -17 -33 -29 -46 -39 -42 -20 8 -19 16 11 77 32 65 186
296 197 297 5 0 22 -9 38 -21z m3249 -29 c0 -5 -5 -10 -11 -10 -5 0 -7 5 -4
10 3 6 8 10 11 10 2 0 4 -4 4 -10z m70 6 c0 -11 -19 -15 -25 -6 -3 5 1 10 9
10 9 0 16 -2 16 -4z m2709 -80 c74 -52 100 -148 62 -231 -80 -176 -340 -136
-359 55 -8 85 29 155 103 195 48 26 143 16 194 -19z m2562 12 c93 -27 159
-121 159 -224 -1 -102 -46 -168 -143 -209 -101 -42 -226 5 -277 105 -94 184
68 386 261 328z m-4199 -250 c57 -24 132 -101 160 -165 45 -101 31 -234 -32
-320 -65 -88 -200 -143 -306 -124 -105 20 -195 87 -241 180 -28 58 -30 183 -3
254 63 167 253 246 422 175z m-4721 2 c15 -9 17 -15 9 -30 -12 -23 -19 -24
-55 -10 -22 9 -24 12 -13 30 14 22 30 25 59 10z m-71 -133 c0 -12 -71 -127
-79 -127 -3 0 -17 9 -30 19 l-24 19 44 60 c40 54 46 58 66 49 13 -6 23 -14 23
-20z m7184 4 c31 -13 45 -39 25 -52 -10 -6 -6 -9 14 -9 23 0 26 -2 15 -14 -7
-8 -15 -11 -18 -7 -10 12 -65 6 -62 -7 1 -8 -2 -11 -8 -7 -6 3 -21 -2 -35 -13
l-25 -19 28 -1 c38 0 62 15 55 34 -5 14 -3 15 17 4 18 -9 27 -9 46 1 13 7 27
10 30 6 4 -3 15 -2 25 3 10 6 20 7 23 2 2 -4 28 -5 58 -2 34 3 63 0 80 -8 15
-7 32 -11 38 -7 5 3 10 2 10 -4 0 -5 -6 -11 -12 -13 -7 -3 2 -5 20 -5 24 0 41
-8 61 -29 15 -16 38 -36 50 -44 81 -52 107 -116 126 -318 5 -51 3 -63 -9 -68
-9 -3 -16 -13 -16 -20 0 -18 -60 -136 -74 -146 -6 -4 -7 -8 -1 -8 5 0 -9 -18
-30 -40 -21 -22 -45 -40 -52 -40 -7 0 -13 -4 -13 -10 0 -5 -12 -10 -27 -10
-22 0 -25 -2 -13 -10 12 -8 9 -10 -12 -10 -14 0 -29 -6 -32 -12 -5 -10 -7 -10
-12 0 -4 9 -12 7 -31 -8 -14 -11 -36 -20 -49 -20 -12 0 -25 -4 -28 -8 -3 -5
-34 -5 -68 0 -64 8 -108 24 -108 40 0 4 -4 8 -10 8 -5 0 -10 -7 -10 -15 0 -19
51 -128 65 -137 6 -5 3 -8 -7 -8 -10 0 -18 -4 -18 -9 0 -5 -13 -14 -29 -21
-37 -15 -49 -7 -121 77 -79 92 -141 185 -135 201 3 8 0 10 -6 6 -7 -4 -9 1 -4
15 8 26 -4 49 -15 30 -6 -9 -17 -5 -42 17 -18 16 -43 36 -55 44 l-22 15 18 55
c11 30 26 102 35 160 8 58 25 133 37 167 36 109 124 226 189 255 16 7 27 15
25 18 -6 10 92 11 119 1z m-5534 -22 c0 -5 -7 -9 -15 -9 -15 0 -20 12 -9 23 8
8 24 -1 24 -14z m-1743 -146 c103 -69 190 -128 193 -131 22 -22 -59 26 -205
122 -153 102 -199 136 -181 136 3 0 90 -57 193 -127z m3 -88 c36 -23 81 -51
101 -62 32 -17 35 -21 24 -37 -12 -16 -18 -14 -75 26 -94 64 -280 226 -280
244 0 9 33 -13 83 -56 45 -40 111 -91 147 -115z m7235 145 c3 -5 -1 -10 -10
-10 -9 0 -13 5 -10 10 3 6 8 10 10 10 2 0 7 -4 10 -10z m-1317 -28 c3 -16 -2
-22 -16 -22 -22 0 -32 17 -24 38 7 20 37 9 40 -16z m-5920 -217 c44 -33 80
-64 78 -70 -1 -5 -14 -11 -28 -13 -31 -4 -148 87 -234 181 -72 79 -86 101 -79
120 5 11 29 -7 94 -71 48 -48 124 -114 169 -147z m-258 91 c23 -30 77 -89 121
-131 85 -81 95 -109 27 -74 -79 40 -191 165 -213 237 -12 41 21 24 65 -32z
m3160 -254 c0 -13 -12 -22 -22 -16 -10 6 -1 24 13 24 5 0 9 -4 9 -8z m3964
-243 c34 -27 56 -70 56 -109 0 -30 0 -30 -55 -30 -50 0 -56 2 -70 30 -20 38
-19 58 5 98 23 38 29 39 64 11z m-3839 -8 c3 -5 1 -12 -5 -16 -5 -3 -10 1 -10
9 0 18 6 21 15 7z m1625 -101 c0 -5 -4 -10 -10 -10 -5 0 -10 5 -10 10 0 6 5
10 10 10 6 0 10 -4 10 -10z m1015 -10 c-22 -4 -32 -8 -22 -9 21 -1 13 -21 -9
-21 -19 0 -34 -15 -62 -63 -27 -46 -27 -46 -2 -40 11 3 29 18 40 33 15 21 26
26 47 24 25 -4 26 -3 8 6 -17 9 -15 10 13 7 32 -3 44 7 20 16 -7 3 6 5 29 4
28 -1 39 -5 32 -12 -6 -5 -15 -10 -22 -10 -7 0 -12 -4 -12 -10 0 -5 -4 -16 -8
-22 -5 -8 -4 -13 2 -13 17 0 30 -63 17 -80 -9 -13 -9 -13 6 -2 9 8 27 11 40 8
13 -3 17 -3 11 0 -23 10 -14 20 17 18 17 -1 30 2 30 7 0 14 36 11 77 -6 68
-29 111 -104 74 -132 -14 -11 -14 -14 -1 -22 108 -66 170 -177 170 -305 0 -82
-18 -140 -86 -272 -147 -284 -139 -275 -217 -276 -47 0 -157 23 -157 34 0 4
-5 8 -11 8 -7 0 -33 17 -58 37 -54 44 -74 63 -67 63 3 0 -7 12 -21 28 -44 47
-74 89 -78 110 -2 12 -9 30 -15 42 -7 12 -14 63 -17 113 -5 84 -2 100 27 186
33 97 66 158 110 201 32 31 103 70 129 70 11 0 21 4 23 9 3 10 98 18 114 9 5
-3 23 -6 41 -6 17 0 45 -8 62 -16 34 -18 41 -19 41 -8 0 5 -32 21 -71 37 -228
89 -556 -5 -665 -191 -47 -81 -57 -128 -58 -291 -1 -83 1 -150 4 -148 3 2 6
-9 7 -23 l1 -26 -19 24 c-33 42 -97 182 -108 238 -41 198 18 387 161 516 74
67 126 95 243 131 50 14 95 28 100 30 6 2 37 3 70 3 56 -1 57 -1 20 -8z
m-3625 -26 c58 -9 125 -20 150 -23 l45 -7 -37 -8 c-21 -5 -38 -12 -38 -16 0
-16 -34 -20 -55 -6 -32 21 -165 32 -206 17 -18 -6 -60 -29 -94 -50 -123 -79
-150 -95 -157 -93 -13 3 -9 -53 7 -98 18 -50 18 -50 5 -50 -11 0 -40 93 -40
130 0 19 9 30 37 45 21 11 77 58 126 104 81 76 91 83 120 77 18 -3 79 -13 137
-22z m3797 10 c-3 -3 -12 -4 -19 -1 -8 3 -5 6 6 6 11 1 17 -2 13 -5z m988
-114 c41 -52 73 -100 71 -107 -3 -7 0 -15 6 -19 7 -5 8 -2 4 7 -4 8 8 -4 28
-26 25 -28 31 -42 23 -48 -8 -6 -7 -7 5 -4 20 7 51 -14 54 -37 1 -10 -5 -16
-19 -16 -28 0 -100 77 -211 223 -75 100 -87 119 -76 132 16 19 13 22 115 -105z
m-972 83 c-7 -2 -21 -2 -30 0 -10 3 -4 5 12 5 17 0 24 -2 18 -5z m903 -175
c102 -136 148 -188 168 -188 5 0 3 -7 -4 -15 -31 -37 -65 -8 -182 157 -52 73
-98 139 -102 146 -8 13 -2 42 9 42 2 0 53 -64 111 -142z m-4396 97 c0 -7 -30
-31 -67 -51 -38 -20 -94 -54 -125 -75 -32 -20 -88 -47 -125 -59 -136 -45 -216
-94 -418 -258 -59 -48 -84 -62 -104 -60 -18 2 -27 10 -29 25 -2 16 4 24 31 32
19 7 61 32 93 58 157 122 278 192 387 223 40 12 86 28 102 35 32 15 85 61 85
74 0 4 32 18 71 31 38 13 72 27 75 32 8 13 24 9 24 -7z m4577 -47 c21 -24 37
-48 31 -48 -2 0 -19 16 -38 35 -19 19 -29 35 -24 35 6 0 20 -10 31 -22z m-300
-50 c39 -42 133 -173 133 -186 0 -5 -11 -12 -25 -15 -22 -4 -30 2 -52 42 -15
25 -44 72 -65 103 -56 84 -50 118 9 56z m-4217 -17 c0 -9 -321 -191 -365 -207
-35 -13 -209 -116 -250 -148 -22 -17 -77 -61 -121 -98 -57 -47 -84 -64 -92
-56 -17 17 -4 34 56 80 32 24 59 46 62 49 8 9 93 65 133 88 20 11 54 30 74 42
49 27 118 63 168 85 22 10 69 35 105 57 36 22 81 49 100 60 19 11 49 28 65 38
33 19 65 24 65 10z m1567 -67 c-3 -3 -12 -4 -19 -1 -8 3 -5 6 6 6 11 1 17 -2
13 -5z m83 -19 c51 -16 80 -68 80 -146 0 -46 -6 -55 -33 -50 -5 1 -6 -3 -3 -8
4 -5 2 -12 -4 -16 -5 -3 -10 0 -11 7 0 7 -6 1 -12 -14 -7 -14 -20 -35 -31 -46
-17 -20 -17 -21 8 -43 45 -39 35 -48 -46 -43 -40 3 -88 10 -105 16 -18 5 -37
7 -43 3 -28 -17 -109 77 -88 102 16 19 30 16 55 -14 13 -14 23 -21 23 -14 0 7
4 9 10 6 5 -3 19 -1 30 5 16 9 20 8 20 -5 0 -10 10 -15 33 -15 23 0 28 3 17 9
-8 6 -17 8 -21 5 -4 -2 -9 3 -13 11 -3 10 1 15 12 16 12 0 9 3 -8 10 -20 8
-22 12 -10 19 12 8 10 10 -10 11 -14 0 -19 3 -11 6 11 5 11 7 0 14 -10 6 -7 9
11 9 25 1 24 1 -5 16 -16 8 -22 12 -12 9 9 -2 17 0 17 5 0 9 -13 14 -31 12 -3
-1 -6 6 -6 14 0 8 5 14 10 14 6 0 3 8 -6 18 -23 25 -21 39 6 65 19 19 32 23
87 21 36 0 76 -5 90 -9z m-1620 -3 c0 -14 -139 -110 -345 -239 -271 -170 -357
-228 -390 -262 -34 -35 -65 -40 -65 -13 0 17 156 130 264 192 185 105 284 167
425 265 92 64 111 73 111 57z m-830 -57 c-7 -8 -17 -15 -23 -15 -6 0 -2 7 9
15 25 19 30 19 14 0z m73 -4 c-4 -17 -63 -73 -163 -158 -17 -14 -33 -23 -36
-20 -10 10 26 72 59 99 113 94 150 115 140 79z m4901 -17 c3 -8 2 -12 -4 -9
-6 3 -10 10 -10 16 0 14 7 11 14 -7z m-4084 0 c0 -8 -20 -23 -166 -130 -156
-114 -314 -220 -314 -211 0 2 33 26 73 52 91 61 300 217 350 261 34 32 57 42
57 28z m4065 -25 c11 -17 -1 -21 -15 -4 -8 9 -8 15 -2 15 6 0 14 -5 17 -11z
m-4028 -25 c7 -20 -38 -68 -97 -102 -25 -15 -97 -63 -160 -107 -157 -109 -392
-264 -464 -305 -37 -20 -66 -21 -66 -2 0 10 68 55 205 137 137 82 457 303 520
359 45 40 53 42 62 20z m3670 -31 c-3 -10 -5 -4 -5 12 0 17 2 24 5 18 2 -7 2
-21 0 -30z m-5305 -12 c60 -23 109 -108 94 -165 -8 -33 -61 -93 -99 -112 -44
-24 -109 -11 -141 27 -60 71 -58 159 4 221 31 31 45 38 78 38 22 0 51 -4 64
-9z m5315 -73 c-2 -13 -4 -3 -4 22 0 25 2 35 4 23 2 -13 2 -33 0 -45z m-10
-75 c-3 -10 -5 -2 -5 17 0 19 2 27 5 18 2 -10 2 -26 0 -35z m-20 -75 c-3 -8
-6 -5 -6 6 -1 11 2 17 5 13 3 -3 4 -12 1 -19z m1453 -33 c14 -17 4 -55 -15
-55 -28 0 -45 13 -45 35 0 34 38 47 60 20z m-5640 -8 c-18 -17 -98 -64 -87
-51 9 10 89 62 97 63 2 1 -2 -5 -10 -12z m-100 -62 c0 -2 -10 -9 -22 -15 -22
-11 -22 -10 -4 4 21 17 26 19 26 11z m-80 -49 c0 -5 -69 -46 -78 -46 -6 1 69
50 76 50 1 0 2 -2 2 -4z m-1853 -62 c-3 -3 -12 -4 -19 -1 -8 3 -5 6 6 6 11 1
17 -2 13 -5z m873 -192 c0 -13 -12 -22 -22 -16 -10 6 -1 24 13 24 5 0 9 -4 9
-8z m2880 -32 c0 -5 -4 -10 -10 -10 -5 0 -10 5 -10 10 0 6 5 10 10 10 6 0 10
-4 10 -10z m3130 -20 c0 -5 -4 -10 -10 -10 -5 0 -10 5 -10 10 0 6 5 10 10 10
6 0 10 -4 10 -10z m-7050 -74 c0 -3 -4 -8 -10 -11 -5 -3 -10 -1 -10 4 0 6 5
11 10 11 6 0 10 -2 10 -4z m8119 -44 c151 -93 139 -313 -22 -388 -94 -43 -186
-28 -259 43 -145 141 -19 396 186 378 31 -3 67 -15 95 -33z m-2303 -170 c117
3 118 -6 2 -17 -83 -7 -136 3 -160 32 -11 14 -8 14 21 -1 27 -14 53 -17 137
-14z m284 -168 c0 -5 -6 -19 -14 -30 -13 -17 -29 -19 -148 -22 -73 -2 -157 -1
-185 3 -49 6 -53 8 -53 33 l0 27 200 0 c134 0 200 -3 200 -11z m11 -122 c12
-33 -1 -35 -164 -29 -129 4 -248 25 -269 45 -4 4 90 7 209 7 216 0 216 0 224
-23z m-296 -92 c28 -5 98 -9 156 -9 58 -1 108 -4 112 -7 9 -9 -48 -90 -68 -98
-9 -3 -55 -6 -101 -6 l-84 0 -63 56 c-102 93 -99 87 -47 80 25 -4 68 -11 95
-16z m105 -194 c0 -9 -8 -12 -25 -8 -37 7 -41 22 -6 22 20 0 31 -5 31 -14z"/>
<path d="M6875 9830 c10 -11 20 -20 23 -20 3 0 -3 9 -13 20 -10 11 -20 20 -23
20 -3 0 3 -9 13 -20z"/>
<path d="M6665 9679 c-22 -12 -43 -27 -47 -34 -4 -7 -33 -32 -65 -56 -32 -24
-88 -67 -124 -96 l-67 -52 -17 -78 c-26 -125 -32 -137 -90 -187 -30 -26 -55
-52 -55 -59 0 -8 3 -8 12 1 18 18 30 14 23 -8 -6 -18 -3 -20 18 -15 19 5 33
-1 61 -25 l36 -32 45 37 c52 43 61 58 12 21 -19 -15 -37 -26 -40 -26 -4 0 -7
19 -7 43 0 50 -7 61 -40 65 -34 5 -35 7 -12 37 11 14 27 60 36 103 9 42 21 87
26 98 8 20 121 112 220 181 l46 31 10 -23 c8 -17 8 -27 0 -35 -8 -8 -6 -9 7
-5 14 6 17 1 17 -26 0 -77 -65 -163 -215 -288 -22 -18 -31 -29 -20 -23 31 16
169 136 205 179 26 31 34 50 37 93 2 30 5 56 6 57 1 1 22 -4 46 -10 l43 -12
-5 -52 c-8 -80 -32 -118 -123 -194 -86 -72 -114 -104 -46 -53 141 106 175 152
188 259 4 33 13 69 20 80 11 18 18 52 15 82 -1 17 -54 43 -88 43 -16 0 -46
-10 -68 -21z m125 -17 c18 -14 21 -25 16 -45 -16 -65 -70 -75 -123 -22 -30 30
-33 37 -22 51 30 36 95 44 129 16z"/>
<path d="M6451 9440 c-17 -17 -31 -33 -31 -37 0 -4 16 8 35 27 19 19 35 35 35
37 0 7 -9 1 -39 -27z"/>
<path d="M6554 9438 l-19 -23 23 19 c21 18 27 26 19 26 -2 0 -12 -10 -23 -22z"/>
<path d="M6400 9211 c0 -6 4 -13 10 -16 6 -3 7 1 4 9 -7 18 -14 21 -14 7z"/>
<path d="M6524 9188 l-19 -23 23 19 c21 18 27 26 19 26 -2 0 -12 -10 -23 -22z"/>
<path d="M6474 9148 l-19 -23 23 19 c21 18 27 26 19 26 -2 0 -12 -10 -23 -22z"/>
<path d="M6179 9023 c-13 -16 -12 -17 4 -4 9 7 17 15 17 17 0 8 -8 3 -21 -13z"/>
<path d="M3073 9076 c-13 -6 -23 -14 -23 -18 0 -5 -7 -8 -15 -8 -8 0 -15 -4
-15 -8 0 -5 -10 -14 -23 -21 -12 -6 -32 -27 -45 -45 -19 -28 -22 -44 -20 -105
1 -40 6 -75 10 -77 5 -3 6 -9 3 -14 -3 -4 2 -24 10 -45 12 -27 21 -35 37 -33
25 4 44 -23 34 -48 -7 -17 -9 -16 -22 9 -16 30 -31 37 -19 10 4 -10 9 -37 11
-61 3 -38 25 -77 45 -77 4 0 11 -4 16 -9 5 -5 3 -6 -4 -2 -16 9 -16 -5 -1 -39
11 -25 23 -32 31 -17 2 4 2 2 1 -5 -2 -6 4 -14 13 -17 8 -4 13 -13 9 -21 -3
-9 0 -15 9 -15 8 0 15 -5 15 -11 0 -6 7 -17 15 -26 8 -8 13 -19 10 -24 -4 -5
-1 -9 5 -9 12 0 41 -61 34 -72 -3 -5 0 -8 5 -8 6 0 11 -8 11 -19 0 -10 7 -24
15 -31 8 -7 15 -18 15 -26 0 -7 6 -17 13 -21 6 -4 18 -20 26 -35 8 -15 18 -25
23 -22 4 3 8 -2 8 -11 0 -9 5 -13 10 -10 6 3 10 1 10 -4 0 -6 15 -11 34 -11
40 0 91 42 82 68 -3 9 -10 37 -17 62 -6 25 -24 79 -41 120 -16 41 -35 91 -41
110 -6 19 -17 41 -24 48 -21 21 -43 69 -36 76 4 3 1 6 -6 6 -8 0 -11 6 -7 16
3 8 2 13 -3 10 -5 -3 -17 11 -26 31 -42 89 -74 128 -110 134 -24 4 -35 2 -35
-6 0 -7 -9 -15 -20 -18 -10 -3 -19 -2 -18 2 1 3 -11 32 -25 65 -15 32 -27 66
-27 76 0 19 25 55 82 115 40 43 47 68 24 91 -8 8 -16 13 -18 13 -2 -1 -13 -6
-25 -13z m57 -432 c0 -8 -5 -12 -10 -9 -6 4 -8 11 -5 16 9 14 15 11 15 -7z
m-100 -64 c8 -15 8 -18 -3 -14 -8 3 -14 11 -14 19 0 20 4 19 17 -5z m140 -26
c0 -8 4 -13 8 -10 5 3 9 -1 9 -8 0 -18 31 -84 43 -91 6 -4 8 -11 5 -16 -4 -5
1 -9 10 -9 9 0 14 -4 11 -9 -3 -5 1 -11 9 -15 8 -3 12 -12 9 -20 -3 -8 -1 -17
5 -21 6 -3 11 -15 11 -26 0 -11 4 -18 9 -15 12 8 34 -21 27 -33 -4 -6 0 -18 9
-28 8 -10 15 -22 14 -27 0 -5 5 -13 13 -17 10 -7 10 -9 -2 -9 -15 0 -50 33
-50 48 0 4 -14 25 -30 46 -17 22 -30 46 -30 54 0 8 -8 21 -17 28 -11 8 -13 13
-6 14 10 0 10 6 1 25 -6 13 -15 22 -21 18 -6 -3 -7 -1 -3 6 4 6 0 14 -9 17 -9
4 -14 13 -11 21 3 8 2 12 -2 9 -4 -3 -13 4 -20 15 -9 15 -9 19 0 19 6 0 3 7
-8 15 -10 8 -14 15 -7 15 7 0 10 7 6 17 -4 11 -3 14 5 9 7 -4 12 -14 12 -22z"/>
<path d="M2738 8830 c-3 -16 -1 -30 4 -30 4 0 8 6 8 14 0 8 3 21 6 30 3 9 2
16 -4 16 -5 0 -12 -13 -14 -30z"/>
<path d="M3688 8023 c7 -3 16 -2 19 1 4 3 -2 6 -13 5 -11 0 -14 -3 -6 -6z"/>
<path d="M3505 7950 c3 -5 12 -10 20 -10 8 0 17 5 20 10 4 6 -5 10 -20 10 -15
0 -24 -4 -20 -10z"/>
<path d="M3458 7918 c-15 -15 -15 -18 -3 -18 8 0 15 4 15 9 0 5 8 11 18 13 14
3 14 5 2 9 -8 3 -23 -3 -32 -13z"/>
<path d="M3738 7933 c7 -3 16 -2 19 1 4 3 -2 6 -13 5 -11 0 -14 -3 -6 -6z"/>
<path d="M3555 7470 c3 -5 8 -10 11 -10 2 0 4 5 4 10 0 6 -5 10 -11 10 -5 0
-7 -4 -4 -10z"/>
<path d="M3606 7347 c3 -10 9 -15 12 -12 3 3 0 11 -7 18 -10 9 -11 8 -5 -6z"/>
<path d="M4090 7495 c-11 -13 -10 -14 4 -9 9 3 16 10 16 15 0 13 -6 11 -20 -6z"/>
<path d="M4015 7440 c-18 -20 -18 -20 13 -4 34 17 40 24 19 24 -8 0 -22 -9
-32 -20z"/>
<path d="M3251 6123 c-1 -17 16 -25 25 -12 4 7 3 9 -4 5 -5 -3 -13 0 -15 6 -4
9 -6 10 -6 1z"/>
<path d="M3111 5873 c-1 -12 -7 -26 -13 -30 -7 -4 -13 -20 -13 -35 -1 -14 3
-24 7 -22 4 3 8 16 8 29 0 13 5 27 11 31 8 4 9 -4 5 -27 -5 -29 -5 -30 4 -11
6 15 7 36 1 55 -7 25 -9 27 -10 10z"/>
<path d="M3048 5823 c-10 -12 -12 -27 -7 -48 5 -25 7 -26 8 -7 0 13 6 32 12
44 14 26 6 33 -13 11z"/>
<path d="M3075 5749 c-4 -5 -4 -13 -1 -16 3 -4 6 0 7 8 0 8 4 6 9 -6 7 -16 9
-17 9 -3 1 21 -15 32 -24 17z"/>
<path d="M3071 5647 c-6 -35 -10 -95 -9 -133 1 -67 1 -66 8 26 4 52 11 112 15
133 4 20 5 37 2 37 -3 0 -10 -28 -16 -63z"/>
<path d="M4722 5740 c0 -14 2 -19 5 -12 2 6 2 18 0 25 -3 6 -5 1 -5 -13z"/>
<path d="M4637 5420 c-3 -13 0 -20 8 -20 7 0 12 7 11 15 -4 24 -13 27 -19 5z"/>
<path d="M4625 5379 c-11 -16 -1 -19 13 -3 7 8 8 14 3 14 -5 0 -13 -5 -16 -11z"/>
<path d="M4607 5329 c7 -7 15 -10 18 -7 3 3 -2 9 -12 12 -14 6 -15 5 -6 -5z"/>
<path d="M4637 5313 c-4 -3 -7 -13 -7 -21 0 -18 13 -7 16 13 2 17 1 18 -9 8z"/>
<path d="M4590 5286 c7 -7 13 -7 20 0 6 6 3 10 -10 10 -13 0 -16 -4 -10 -10z"/>
<path d="M4595 5230 c-3 -5 -2 -10 4 -10 5 0 13 5 16 10 3 6 2 10 -4 10 -5 0
-13 -4 -16 -10z"/>
<path d="M4566 5215 c10 -8 23 -15 28 -15 6 0 1 7 -10 15 -10 8 -23 15 -28 15
-6 0 -1 -7 10 -15z"/>
<path d="M4525 5201 c-3 -5 0 -13 6 -17 7 -4 9 -3 5 4 -3 6 2 13 11 15 16 4
16 5 1 6 -9 0 -19 -3 -23 -8z"/>
<path d="M4487 5129 c7 -7 15 -10 18 -7 3 3 -2 9 -12 12 -14 6 -15 5 -6 -5z"/>
<path d="M4407 5031 c14 -16 6 -41 -14 -41 -8 0 -11 -5 -7 -11 5 -8 -1 -10
-20 -7 -14 3 -26 1 -26 -3 0 -13 43 -10 61 4 25 19 30 44 11 58 -14 11 -15 11
-5 0z"/>
<path d="M4385 5010 c3 -5 8 -10 11 -10 2 0 4 5 4 10 0 6 -5 10 -11 10 -5 0
-7 -4 -4 -10z"/>
<path d="M4426 4984 c-9 -24 0 -29 19 -11 19 19 19 27 1 27 -8 0 -17 -7 -20
-16z"/>
<path d="M4302 4895 c-7 -8 -9 -15 -4 -15 5 0 15 7 22 15 16 19 -1 19 -18 0z"/>
<path d="M3925 4590 c-3 -5 -1 -10 4 -10 6 0 11 5 11 10 0 6 -2 10 -4 10 -3 0
-8 -4 -11 -10z"/>
<path d="M3543 4573 c9 -2 23 -2 30 0 6 3 -1 5 -18 5 -16 0 -22 -2 -12 -5z"/>
<path d="M3850 4570 c-23 -7 -23 -8 -3 -9 12 -1 25 4 28 9 3 6 5 10 3 9 -2 -1
-14 -5 -28 -9z"/>
<path d="M3598 4533 c6 -2 18 -2 25 0 6 3 1 5 -13 5 -14 0 -19 -2 -12 -5z"/>
<path d="M7892 2074 c9 -9 21 -15 27 -13 6 2 -2 10 -17 17 -25 11 -25 11 -10
-4z"/>
<path d="M7590 1966 c0 -2 7 -7 16 -10 8 -3 12 -2 9 4 -6 10 -25 14 -25 6z"/>
</g>
</svg>
