<?xml version="1.0" standalone="no"?>
<!DOCTYPE svg PUBLIC "-//W3C//DTD SVG 20010904//EN"
 "http://www.w3.org/TR/2001/REC-SVG-20010904/DTD/svg10.dtd">
<svg version="1.0" xmlns="http://www.w3.org/2000/svg"
 width="1640.000000pt" height="924.000000pt" viewBox="0 0 1640.000000 924.000000"
 preserveAspectRatio="xMidYMid meet">

<g transform="translate(0.000000,924.000000) scale(0.100000,-0.100000)"
fill="#000000" stroke="none">
<path d="M0 7846 l0 -1394 148 -52 c356 -128 862 -343 895 -382 33 -39 0 -84
-58 -80 -105 9 -657 134 -890 202 -38 11 -76 20 -82 20 -10 0 -13 -157 -13
-755 0 -415 3 -755 8 -755 4 0 69 11 145 25 324 58 531 74 550 44 19 -30 0
-65 -45 -83 -130 -52 -612 -206 -645 -206 -10 0 -13 -450 -13 -2215 l0 -2215
8200 0 8200 0 0 4620 0 4620 -6688 0 -6688 0 17 -71 c10 -38 23 -112 28 -162
6 -51 20 -166 31 -257 42 -346 65 -650 69 -901 2 -136 0 -146 -19 -164 -35
-32 -69 -11 -92 55 -19 55 -120 445 -137 530 -5 25 -27 136 -50 247 -71 353
-120 668 -105 683 5 5 27 16 49 24 35 13 -126 15 -1387 15 l-1428 1 0 -1394z
m4997 1069 c31 -36 31 -116 -1 -215 -96 -299 -366 -945 -452 -1081 -27 -44
-56 -54 -86 -30 l-22 18 19 94 c59 312 273 1033 343 1163 35 65 73 89 132 83
32 -4 51 -12 67 -32z m-3864 -729 c18 -7 49 -31 68 -54 30 -35 126 -195 219
-367 18 -33 45 -83 61 -111 108 -197 259 -522 259 -559 0 -57 -55 -59 -104 -4
-94 103 -347 464 -501 714 -92 148 -121 202 -135 252 -11 36 -10 46 6 79 18
36 53 64 82 64 7 0 27 -6 45 -14z m5327 -750 l43 -129 -53 -46 c-200 -172
-710 -543 -767 -557 -34 -9 -68 24 -60 58 4 12 43 66 88 118 118 136 689 704
699 694 4 -5 27 -67 50 -138z m-2410 -561 c203 -29 343 -76 486 -164 180 -112
286 -244 432 -536 176 -354 269 -713 266 -1035 -1 -114 -4 -133 -33 -213 -47
-131 -116 -272 -223 -457 -260 -450 -331 -612 -379 -861 -30 -156 -24 -352 15
-524 22 -96 234 -745 300 -920 25 -66 21 -102 -14 -120 -37 -19 -309 -115
-326 -115 -14 0 -59 90 -131 265 -125 303 -217 654 -258 995 -23 182 -31 589
-16 775 29 359 97 668 224 1015 72 200 95 282 103 380 24 274 -169 482 -421
454 -72 -8 -177 -38 -223 -65 l-32 -19 -45 35 c-50 38 -100 55 -160 55 -84 0
-210 -50 -279 -110 l-34 -30 -55 29 c-125 66 -278 76 -412 27 -119 -43 -193
-111 -249 -226 -30 -62 -31 -70 -31 -190 1 -110 4 -135 29 -210 55 -167 112
-266 360 -629 317 -465 543 -894 721 -1371 161 -432 335 -1096 335 -1281 l0
-36 -67 -6 c-48 -5 -71 -3 -79 6 -13 13 -87 208 -147 387 -100 297 -164 437
-257 561 -65 87 -199 213 -287 272 -70 46 -211 120 -473 245 -246 118 -501
293 -640 438 -201 210 -375 524 -455 819 -73 270 -80 518 -24 800 81 409 316
839 588 1078 291 255 738 420 1296 477 61 6 119 13 130 14 66 10 374 4 465 -9z
m3016 -1320 c20 -63 34 -118 31 -121 -8 -9 -649 -9 -772 0 -218 14 -251 18
-272 32 -26 16 -31 55 -10 73 30 25 359 78 660 107 38 3 101 10 140 14 40 4
98 8 129 9 l57 1 37 -115z m-3391 3 c14 -6 25 -15 25 -20 0 -4 -16 -28 -35
-53 -44 -59 -60 -112 -60 -205 0 -88 30 -164 86 -218 91 -89 141 -74 195 59
35 85 44 225 20 318 -19 73 -22 69 64 102 36 15 79 22 125 23 114 1 180 -46
211 -151 32 -106 11 -220 -89 -493 -106 -288 -171 -573 -202 -895 -21 -203
-16 -649 9 -832 55 -410 162 -786 325 -1135 17 -36 31 -70 31 -76 0 -8 -240
-66 -245 -59 -1 1 -14 72 -29 157 -148 864 -484 1695 -970 2400 -249 362 -305
457 -352 595 -39 118 -39 212 1 290 55 107 164 164 292 152 55 -6 153 -37 153
-50 0 -3 -15 -36 -32 -73 -29 -61 -33 -81 -36 -175 -5 -118 9 -181 58 -279 37
-74 81 -120 114 -120 62 0 160 141 186 267 22 106 -6 260 -65 353 l-25 39 35
26 c41 32 120 64 157 65 15 0 39 -5 53 -12z m100 -305 c-7 -51 -20 -56 -29
-10 -7 37 1 92 18 122 10 17 11 14 14 -25 2 -25 1 -64 -3 -87z m-391 -63 c0
-65 -5 -95 -21 -130 l-21 -45 -18 40 c-13 30 -18 64 -18 135 0 71 5 105 18
135 l18 40 21 -45 c16 -35 21 -65 21 -130z"/>
</g>
</svg>
